<?xml version="1.0" encoding="UTF-8"?>
<!DOCTYPE svg PUBLIC "-//W3C//DTD SVG 1.1//EN" "http://www.w3.org/Graphics/SVG/1.1/DTD/svg11.dtd">
<!-- Creator: CorelDRAW 2020 (64 Bit) -->
<svg xmlns="http://www.w3.org/2000/svg" xml:space="preserve" width="210mm" height="297mm" version="1.1" style="shape-rendering:geometricPrecision; text-rendering:geometricPrecision; image-rendering:optimizeQuality; fill-rule:evenodd; clip-rule:evenodd"
viewBox="0 0 21000 29700"
 xmlns:xlink="http://www.w3.org/1999/xlink"
 xmlns:xodm="http://www.corel.com/coreldraw/odm/2003">
 <defs>
  <style type="text/css">
   <![CDATA[
    .fil7 {fill:#FEFEFE}
    .fil5 {fill:#030303}
    .fil2 {fill:#956A33}
    .fil6 {fill:#F88B8E}
    .fil1 {fill:#FAAF5E}
    .fil3 {fill:#FEFEFE}
    .fil0 {fill:#FFFEFE}
    .fil4 {fill:white}
   ]]>
  </style>
 </defs>
 <g id="Camada_x0020_1">
  <metadata id="CorelCorpID_0Corel-Layer"/>
  <polygon class="fil0" points="23616.15,8487.19 30830.47,8487.19 30830.47,4816.17 23616.15,4816.17 "/>
  <g id="_1964124071552">
   <path class="fil1" d="M30515.94 -5719.05c71.41,-168.82 332.07,-385.12 497.77,-627.47 482.24,-705.26 60.83,-1057.54 563.89,-1754.62 125.38,-173.73 79.85,-1213.22 630.09,-736.48l160.56 187.85c3.44,5.28 7.61,12.25 11.07,17.33 101.16,148.64 343.35,67.94 665.67,225.93 580.58,284.58 245.8,665.18 841.48,832.72 115.15,32.38 238.18,34.96 285.08,117.76 129.37,228.43 -137.38,244.43 -138.09,244.61 1.86,20.89 186.38,327.27 -277.5,584.27 -237.11,131.36 -601.52,100.8 -730.74,251.5 -96.05,364.53 175.99,753.79 333.79,961.39 285.29,11.65 565.05,-57.45 787.33,-174.18 105.49,-55.41 215.31,-137.43 293.04,-193.42 104.11,-74.98 165.9,-168.5 229.89,-256.62 310.57,-427.72 407.49,-946.27 196.41,-1517.61 -79.34,-214.78 -267.86,-479.12 -384.08,-587.91 -163.94,-153.47 -378.59,-292.03 -528.67,-442.57 -449.73,-451.12 -695.11,-1187.31 -1831.34,-1021.77 -716.28,104.35 -885.5,715.66 -1598.56,1316.62 -310.63,261.78 -648.31,652.3 -666.1,1269.4 -13.69,474.47 142.35,757.47 376.96,1071.45l176.46 174.16c68.51,45.72 18.75,25.97 105.59,57.66z"/>
   <path class="fil1" d="M21097.59 -9226.6c-41.63,890.86 -9.87,2342.95 -9.54,3282.34l13.88 271.28c127.2,34.36 582.35,36.05 700.74,-3.83l17.72 -1189.7c588.45,5.19 1142.96,56.83 1583.98,-284.24 527.15,-407.68 549.85,-1482.11 -98.5,-1883.25 -453.82,-280.77 -1611.31,-198.96 -2208.28,-192.6z"/>
   <path class="fil1" d="M35976.59 -7319.28c-113.5,204.1 172.48,1216.02 1486.07,1179.97 1396.96,-38.36 1757.22,-1668.31 525.1,-2084.23 -310.95,-104.97 -779.44,-184.78 -1039.54,-336.26 -379.05,-220.74 -175.36,-654.06 225.55,-718.18 205.42,-32.85 419.71,-1.1 553.69,102.95 124.34,96.53 158.38,162.77 202.99,305.54 56.23,179.9 29.22,126.43 680.78,140.43 137.97,-1289.31 -2014.9,-1550.08 -2496.98,-500.88 -159.38,346.88 -104.23,792.62 196.81,1092.23 398.49,396.58 1121.48,378.18 1522.67,636.51 143.49,92.42 249.96,318.57 121.86,514.28 -187.58,286.55 -719.87,326.31 -1049.09,140.46 -242.57,-136.94 -213.62,-366.02 -279.74,-446.51 -55.39,-67.43 -533.91,-63.37 -650.17,-26.31z"/>
   <path class="fil1" d="M26349.06 -6079.07c-28.1,-60.96 -293.23,-370.18 -411.32,-341.55 -72.4,43.8 -64.69,69.01 -136.6,125.13 -308.92,241.09 -725.4,259.16 -1000.84,-51.03 -101.51,-114.3 -130.79,-243.05 -167.84,-412.49 306.1,-0.2 1676.9,31.88 1843.5,-22.82 75.17,-339.92 -30.43,-772.06 -192.18,-1018.71 -534.98,-815.84 -1945.53,-698.92 -2274.88,336.35 -355,1115.89 435.81,2072.14 1569.48,1863.85 331.92,-60.97 655.76,-261.78 770.68,-478.73z"/>
   <path class="fil1" d="M27082.22 -8694.29l-1.82 402.53c-121.05,61.52 -266.82,11.91 -389.47,28.73 -156,21.39 -111.68,140.76 -111.51,296.68 0.43,297.91 -70.48,282.34 382.21,282.56 167.92,0.09 120.18,33.39 120.2,364.51 0.01,840.51 -154.72,1736.24 930.74,1714.83 536.89,-10.58 437.41,-43.86 442.52,-623.21 -211.28,-5.36 -462.58,77.6 -591.11,-78.6 -118.32,-143.79 -80.94,-972.81 -80.85,-1232.03 0.09,-241.22 71.68,-105.26 628.15,-161.22 36.31,-96.42 44.54,-420.76 7.98,-535.49 -78.1,-43.53 -194.14,-28.13 -296.84,-26.98 -52.29,0.59 -113.25,3.67 -163.96,3.01 -14.38,-0.19 -65.78,-1.66 -77.95,-3.79 -8.49,-1.48 -15.4,-3.07 -23.16,-5.02 -7.4,-1.86 -14.98,-5.3 -21.34,-7.37 -6.2,-2.01 -15.08,-7.37 -19.93,-9.23 -54.3,-20.89 -30.67,-259 -30.07,-329.03 0.83,-95.25 19.33,-197.74 -23.26,-283.4 -53.78,-108.16 -282.19,-65.51 -423.22,-65.59 -268.96,0 -256.96,-0.21 -257.31,268.11z"/>
   <path class="fil1" d="M33346.88 -11877.67c-1082.63,225.02 -867.01,2156.11 126.24,1951.63 412.23,-84.86 696,-550.12 685.82,-1060.11 -9.75,-488.7 -319.7,-993.84 -812.06,-891.52z"/>
   <path class="fil1" d="M31259.18 -11883.24c-972.18,226.57 -670.2,2134.22 324.41,1957.84 439.12,-77.89 673.85,-628.97 579.94,-1160.76 -75.15,-425.49 -409.52,-912.4 -904.35,-797.08z"/>
   <path class="fil1" d="M34906.18 -10478.08c-1019.12,265.86 -983.53,1942.11 -17.48,1725.42 953.22,-213.83 1029.93,-1989.53 17.48,-1725.42z"/>
   <path class="fil1" d="M29587.49 -10477.5c-562.2,178.5 -539.73,1150.72 47.39,1566.88 74.83,53.03 70.34,96.49 258.85,148.64 645.15,178.46 956.67,-545.12 683.42,-1142.7 -130.49,-285.4 -522.22,-721.24 -989.66,-572.82z"/>
   <path class="fil1" d="M28854.75 -8101.15l0.71 2438.6 680.57 -0.53c39.77,-340.12 29.9,-2063.39 11.19,-2553.74 -115.92,-48.44 -273.6,-30.39 -399.35,-32.24 -207.37,-3.03 -292.94,-53.88 -293.12,147.91z"/>
   <path class="fil0" d="M21820.9 -7477.59c558.77,-12.15 1242.57,91.86 1241.49,-569.59 -1.05,-661.22 -670.96,-592.68 -1238.73,-575.72l-2.76 1145.31z"/>
   <path class="fil0" d="M24637.98 -7218.91l1167.99 -0.89c3.76,-343.02 -222.3,-596.22 -571.73,-598.49 -380.72,-2.48 -559.13,252.64 -596.26,599.38z"/>
  </g>
  <g id="_1964124118928">
   <path class="fil2" d="M32057.82 6176.07l136.21 -48.03c16.46,-16.51 68.7,-31.2 124.24,-83.44 135.52,-127.42 125.09,-181.04 365.77,-266.11 117.34,-41.48 208.91,-63.14 315.55,-45.84 27.14,4.41 35.31,9.27 65.84,12.99 132.66,16.17 206.03,-5.72 222.23,-3.25l97.33 -34.32c23.11,-18.65 152.85,-53.2 216.67,-171 151.47,-279.59 -185.44,-499.1 -371.6,-642.03l-257.61 -182.74c-18.58,-12.62 -33.44,-22.84 -54.95,-35.99l-217.4 -123.61c-113.72,-58.8 -281.37,-55.14 -415.89,-9.93 -327.49,110.06 -401.84,301.92 -493.61,597.56 -55.23,177.9 -82.22,320.13 -124.69,497.89 -16.65,69.72 -36.32,192.32 -26.73,267.1 13.77,107.38 80.03,201.41 150.73,240.2 117.29,64.33 193.09,30.63 258.85,30.1l9.06 0.45z"/>
   <path class="fil2" d="M32182.78 2922.26l-82.63 29.14 -17.73 16.44c-313.97,227.75 -153.56,857.25 127.58,1088.25 409.14,336.16 718.67,-111.59 545.37,-628.07 -51.06,-152.19 -127.95,-274.77 -227.27,-369.56 -87.83,-83.82 -194.26,-143.35 -317.48,-135.27l-27.84 -0.93z"/>
   <path class="fil2" d="M31271.1 3243.75l-79.48 28.02c-11.17,14.21 -22.38,17.83 -39.55,31.49 -197.73,157.37 -169.13,504.2 -89.16,721.57 87.27,237.21 338.91,543.98 598.4,452.84 328.39,-115.36 301.72,-761.7 -44.07,-1099.93 -67.18,-65.71 -152.9,-114.26 -244.11,-131.2 -31.49,-5.85 -72.64,3.44 -102.03,-2.79z"/>
   <path class="fil2" d="M33128.79 3595.96c-192.01,89.63 -264.3,360.7 -261.62,558.71 1.55,114.3 36.49,268.21 113.77,358.57 70.06,81.93 173.6,139.53 304.1,76 274.41,-133.6 341.74,-687.37 143.82,-917.94 -70.59,-82.23 -169.19,-136.43 -300.07,-75.34z"/>
   <path class="fil2" d="M30816.69 4411.47c-223.81,119.39 -108.38,452.89 46.68,620.84 81.5,88.28 163.01,149.91 250.55,189.36 248.83,112.14 490.76,15.2 448.84,-270.34 -29.51,-201.1 -182.45,-384.01 -348.45,-486.16 -97.44,-59.96 -269.08,-122.26 -397.62,-53.7z"/>
   <path class="fil3" d="M32194.03 6128.04l1093.63 -385.65c-16.2,-2.47 -89.57,19.42 -222.23,3.25 -30.53,-3.72 -38.7,-8.58 -65.84,-12.99 -106.64,-17.3 -198.21,4.36 -315.55,45.84 -240.68,85.07 -230.25,138.69 -365.77,266.11 -55.54,52.24 -107.78,66.93 -124.24,83.44z"/>
   <path class="fil2" d="M26894.83 6124.33l136.21 -48.03c16.47,-16.51 68.7,-31.2 124.25,-83.44 135.51,-127.42 125.08,-181.04 365.76,-266.11 117.34,-41.48 208.91,-63.14 315.55,-45.84 27.15,4.41 35.32,9.27 65.84,12.99 132.66,16.17 206.03,-5.72 222.23,-3.25l97.34 -34.32c23.11,-18.65 152.84,-53.2 216.67,-171 151.47,-279.59 -185.44,-499.1 -371.6,-642.03l-257.62 -182.74c-18.57,-12.62 -33.44,-22.84 -54.95,-35.99l-217.39 -123.61c-113.73,-58.8 -281.38,-55.14 -415.89,-9.93 -327.5,110.06 -401.84,301.92 -493.62,597.56 -55.22,177.9 -82.21,320.13 -124.68,497.89 -16.66,69.72 -36.32,192.32 -26.73,267.1 13.77,107.38 80.02,201.41 150.72,240.2 117.29,64.33 193.1,30.63 258.85,30.1l9.06 0.45z"/>
   <path class="fil2" d="M27019.8 2870.52l-82.64 29.14 -17.72 16.43c-313.97,227.76 -153.57,857.26 127.58,1088.26 409.14,336.16 718.66,-111.59 545.36,-628.07 -51.06,-152.19 -127.95,-274.77 -227.27,-369.56 -87.83,-83.82 -194.26,-143.35 -317.47,-135.27l-27.84 -0.93z"/>
   <path class="fil2" d="M26108.11 3192.01l-79.48 28.02c-11.17,14.21 -22.38,17.83 -39.55,31.49 -197.73,157.37 -169.13,504.2 -89.16,721.57 87.27,237.21 338.92,543.98 598.4,452.83 328.4,-115.35 301.72,-761.69 -44.06,-1099.92 -67.19,-65.71 -152.9,-114.26 -244.12,-131.2 -31.49,-5.85 -72.63,3.44 -102.03,-2.79z"/>
   <path class="fil2" d="M27965.8 3544.22c-192,89.63 -264.3,360.7 -261.61,558.71 1.55,114.3 36.48,268.2 113.76,358.57 70.07,81.93 173.6,139.53 304.1,76 274.41,-133.6 341.74,-687.37 143.82,-917.94 -70.59,-82.23 -169.18,-136.44 -300.07,-75.34z"/>
   <path class="fil2" d="M25653.71 4359.73c-223.82,119.39 -108.38,452.89 46.67,620.84 81.5,88.28 163.01,149.91 250.55,189.36 248.83,112.14 490.76,15.2 448.85,-270.35 -29.52,-201.09 -182.45,-384 -348.46,-486.15 -97.43,-59.96 -269.08,-122.26 -397.61,-53.7z"/>
   <path class="fil3" d="M27031.04 6076.3l1093.63 -385.65c-16.2,-2.47 -89.57,19.42 -222.23,3.25 -30.52,-3.72 -38.69,-8.58 -65.84,-12.99 -106.64,-17.3 -198.21,4.36 -315.55,45.84 -240.68,85.07 -230.25,138.69 -365.76,266.11 -55.55,52.24 -107.78,66.93 -124.25,83.44z"/>
   <g>
    <path class="fil2" d="M29276.19 1526l136.21 -48.04c16.47,-16.51 68.7,-31.2 124.25,-83.43 135.51,-127.42 125.08,-181.04 365.76,-266.12 117.34,-41.48 208.91,-63.14 315.55,-45.83 27.15,4.4 35.32,9.27 65.84,12.99 132.66,16.17 206.03,-5.72 222.23,-3.25l97.34 -34.32c23.11,-18.66 152.84,-53.2 216.67,-171.01 151.47,-279.59 -185.44,-499.09 -371.6,-642.02l-257.62 -182.75c-18.57,-12.61 -33.44,-22.83 -54.95,-35.99l-217.39 -123.61c-113.73,-58.79 -281.38,-55.13 -415.89,-9.92 -327.5,110.05 -401.84,301.92 -493.62,597.56 -55.22,177.9 -82.21,320.13 -124.68,497.89 -16.66,69.71 -36.32,192.32 -26.73,267.1 13.77,107.37 80.02,201.41 150.73,240.19 117.28,64.34 193.09,30.64 258.84,30.1l9.06 0.46z"/>
    <path class="fil2" d="M29401.16 -1727.81l-82.64 29.13 -17.72 16.44c-313.97,227.76 -153.57,857.25 127.58,1088.26 409.14,336.16 718.66,-111.59 545.36,-628.08 -51.06,-152.18 -127.95,-274.77 -227.27,-369.55 -87.83,-83.82 -194.26,-143.35 -317.47,-135.27l-27.84 -0.93z"/>
    <path class="fil2" d="M28489.47 -1406.33l-79.48 28.03c-11.17,14.21 -22.38,17.82 -39.55,31.49 -197.73,157.37 -169.13,504.2 -89.16,721.56 87.27,237.22 338.92,543.99 598.4,452.84 328.4,-115.35 301.72,-761.69 -44.06,-1099.92 -67.19,-65.72 -152.9,-114.26 -244.12,-131.21 -31.49,-5.85 -72.63,3.45 -102.03,-2.79z"/>
    <path class="fil2" d="M30347.16 -1054.11c-192,89.63 -264.29,360.7 -261.61,558.71 1.55,114.3 36.48,268.2 113.76,358.57 70.07,81.92 173.6,139.53 304.1,76 274.42,-133.6 341.74,-687.37 143.82,-917.94 -70.59,-82.23 -169.18,-136.44 -300.07,-75.34z"/>
    <path class="fil2" d="M28035.07 -238.6c-223.82,119.39 -108.38,452.88 46.67,620.84 81.5,88.27 163.01,149.91 250.55,189.36 248.84,112.13 490.76,15.2 448.85,-270.35 -29.52,-201.09 -182.45,-384.01 -348.46,-486.16 -97.43,-59.96 -269.08,-122.25 -397.61,-53.69z"/>
    <path class="fil3" d="M29412.4 1477.96l1093.63 -385.64c-16.2,-2.47 -89.57,19.42 -222.23,3.25 -30.52,-3.72 -38.69,-8.59 -65.84,-12.99 -106.64,-17.31 -198.21,4.35 -315.55,45.83 -240.68,85.08 -230.25,138.7 -365.76,266.12 -55.55,52.23 -107.78,66.92 -124.25,83.43z"/>
   </g>
  </g>
  <g id="_1964124117584">
   <polygon class="fil4" points="20166.15,11056.98 20166.15,1087.76 833.92,1087.76 833.92,11056.98 "/>
   <path class="fil5" d="M6372.53 5732.51c-4.72,625.59 38.24,1459.88 208.14,2015.88 -151.33,-10.8 -846.48,-393.69 -1716.91,63.97 -655.53,344.67 -673.09,882.85 -763.43,1385.06 -400.36,-3.4 -2496.6,-47.01 -2690.4,37.67 -49.46,303.93 235.87,210.97 501.74,210.62l2219.02 0.89c84.43,464.23 237.21,946.96 777.56,843.74 190.45,-36.38 233.18,-142.39 337.72,-213.59 436.01,393.39 1022.92,231.76 1239.11,-197.23 640.95,253.83 735.78,-218.7 882.73,-430.79l1680.94 -2.79c518.26,1077.24 2176.18,932.7 2561.83,-0.04l1684.89 0.32c143.67,259.07 65.13,269.5 305.73,431.18 239.17,160.72 351.89,87.07 568.08,1.99 141.63,359.88 751.3,597.19 1169.02,256.32l79 -59.16c106.81,99.53 141.9,175.16 304.89,210.43 538.78,116.62 709.2,-316.89 789.62,-828.8 588.51,-94.87 2353.6,95.43 2744.99,-50.31l4.77 -170.97c-217.2,-102.2 -2286.67,-29.55 -2723.41,-42.28 -56.08,-689.37 -262.32,-1112.32 -724.21,-1363.88 -552.29,-300.78 -1118.99,-307.69 -1707.38,-77.84 86.61,-898.18 208.37,-744.68 195.79,-2022.64 877.65,268.42 407.43,-320.47 663.8,-1185.15 113.2,-381.78 453.4,-1160.96 313.41,-1599.21 -173.34,-542.66 -1049.4,-322.47 -1612.63,-309.87 -330.6,7.4 -666.36,-81.22 -977.13,-36.09 -336.64,48.89 -465.21,239.64 -640.51,374.82 -1292.18,-233 -376.2,-149.65 -1717.66,-152.01 -340.66,-0.6 -572.82,-43.39 -936.9,-4.53 -279.04,29.77 -543.15,128.69 -780.77,155.19 -615.16,-581.37 -680.43,-320.26 -1583,-337.45 -574.26,-10.93 -1464.75,-238.37 -1641.15,313.99 -143.43,449.17 202.64,1214.38 317.84,1617.71 258.81,906.07 -225.21,1400.63 664.87,1164.85z"/>
   <path class="fil4" d="M8345.49 6359.95l-319.73 336.47c-211.33,224.76 -477.58,450.12 -762.47,552 -100.37,35.89 -442.75,60.28 -487.52,119.7 -18.98,869.42 497.59,669.53 603.87,1825.57l1567 3.29c2.87,-122.11 -21.29,-230.1 -21.95,-362.84 -0.73,-147.65 26.89,-264.09 28.73,-404.18 -490.99,-446.69 -407.54,-561.32 -520.47,-927.06 -45.51,-147.36 -35.54,-65.06 -137.49,-169.87 -90.72,-93.28 -164.55,-242.19 -177.43,-421.63 109.57,180.13 167.73,351.86 379,422.19 723.48,240.84 902.9,-682.58 1735.29,-756.56l49.32 -335.79c-40.74,-25.58 -0.3,-6.12 -75.79,-39.2 -336.22,-147.37 -584.68,-260.58 -760.92,-759.57 -205.51,-581.86 351.36,-693.55 852.98,-699.01 1682.65,-18.31 760.38,1347.47 74.32,1467.49l44.54 350.19c742.35,187.75 602.15,297.28 1049.68,633.09 162.64,122.04 423.3,215.89 672.47,146.08 231.3,-64.8 289.31,-231.5 407.65,-428.69 -31.34,396.38 -267.63,456.77 -316.12,554.68 -40.72,82.21 -21.89,331.68 -235.78,639.33 -366.31,526.88 -282.54,-79.31 -283.93,1092.71l1550.51 -1.75c225.07,-1407.13 599.37,-853.11 644.37,-1793.98 -41.2,-123.79 -83.28,-75.41 -259.45,-99.3 -679.15,-92.15 -1042.12,-743.74 -1261.7,-889.41 -243.08,-161.25 -377.4,-379.84 -555.66,-595.76l-299.46 -407.96c-74.18,-125.35 -144.44,-268.1 -232.23,-369.09 -344.52,-396.4 -1440.71,-479.94 -1855.31,-58.02 -216.5,220.32 -356.88,582.2 -638.63,906.22 -67.08,77.14 -72.3,65.9 -140.49,160.82 -107.54,149.75 -158.49,187.64 -317.2,309.84z"/>
   <path class="fil1" d="M9962.27 4423.53c-131.7,7.39 -224.65,52.38 -332.75,87.05 -549.57,176.26 -631.49,709.72 -981.36,1231.99 -58.94,87.99 -113.16,168.22 -175.42,262.76 -59.91,90.96 -104.05,174.43 -195.4,235.61 0,271.2 -12.53,32.06 68.15,119.01 158.71,-122.2 209.66,-160.09 317.2,-309.84 68.19,-94.92 73.41,-83.68 140.49,-160.82 281.75,-324.02 422.13,-685.9 638.63,-906.22 414.6,-421.92 1510.79,-338.38 1855.31,58.02 87.79,100.99 158.05,243.74 232.23,369.09l299.46 407.96c178.26,215.92 312.58,434.51 555.66,595.76 219.58,145.67 582.55,797.26 1261.7,889.41 176.17,23.89 218.25,-24.49 259.45,99.3l78.48 -401.15c51.1,-332.53 123.51,-1125.76 56.33,-1400.48 -28.39,-116.13 -368.29,-411.46 -473,-507.01 -301.93,-275.55 -783.58,-1026.21 -945.38,-1445.37 -66.84,-173.14 -72.64,-204.36 -234.62,-272.31 -510.01,-213.98 -986.38,-351.44 -1629.72,-333.34 -8.02,207.1 -64.04,404.75 -65.41,671.81 -1.26,243.28 14.89,465.97 28.8,703.31l-758.83 5.46z"/>
   <path class="fil1" d="M6775.77 7368.12c44.77,-59.42 387.15,-83.81 487.52,-119.7 284.89,-101.88 551.14,-327.24 762.47,-552l319.73 -336.47c-80.68,-86.95 -68.15,152.19 -68.15,-119.01 91.35,-61.18 135.49,-144.65 195.4,-235.61 62.26,-94.54 116.48,-174.77 175.42,-262.76 349.87,-522.27 431.79,-1055.73 981.36,-1231.99 108.1,-34.67 201.05,-79.66 332.75,-87.05 -12,-189.4 29,-480.53 27.71,-709.32 -1.64,-293.32 -82.94,-550.56 -28.79,-656.16l191.2 7.28c-368.21,-136.06 -1374.11,101.49 -1707.86,244.73 -579.91,248.89 -218.46,254.44 -848.74,1170.57 -139.57,202.87 -269.43,376.91 -431.23,547.16 -57.09,60.06 -495.83,485.9 -505.19,503.03 -116.74,213.89 -22.29,1665.86 116.4,1837.3z"/>
   <path class="fil4" d="M14297.74 9454.32c150.26,229.42 -30.87,483.24 457.57,579.28 531.82,104.56 429.14,-229.49 566.66,-448.82 367.99,-59.41 140.9,612.38 657.38,453.08 327.39,-100.99 719.52,-1827.83 -723.66,-2153.24 -1485.95,-335.05 -1930.46,1148.23 -1666.18,1631.56 56.84,103.97 202.83,245.11 362.8,182.49 194.38,-76.1 63.31,-287.41 345.43,-244.35z"/>
   <path class="fil4" d="M5175.03 9578.27l148.32 -7.74c133.58,197.77 21.91,551.99 552.51,468.32 501.17,-79.03 307.88,-386.1 478.5,-570 201.43,-96.64 162.39,113.63 307.65,209.53 283.56,187.22 667.45,-319.89 346.44,-1058.35 -533.73,-1227.8 -2528.4,-976.76 -2638.05,415.15 -21.82,276.88 50.47,784.26 202.37,944.76 105.71,111.69 329.64,86.39 421.94,-16.56 94.92,-105.9 107.01,-270.1 180.32,-385.11z"/>
   <path class="fil1" d="M14621.14 5562.44c36.14,-511.97 -36.49,-634.95 123.17,-1140.03 105.14,-332.62 229.8,-612.79 290.86,-990.98 97.36,-603 -110.39,-621.76 -662.33,-592.65 -433.13,22.84 -786.11,76.22 -1229.66,15.49 -665.58,-91.13 -463.41,259.39 -314.18,654.02 256.67,678.77 1177.67,1954.27 1792.14,2054.15z"/>
   <path class="fil1" d="M6053.78 5561.34c693.28,-102.67 2051.62,-2019.26 1912.61,-2651.7 -227.56,-139.39 -654.39,2.86 -1306.71,-44.22 -1050.35,-75.82 -1331.82,-146.89 -769.72,1453.61 260.41,741.5 105.52,840.59 163.82,1242.31z"/>
   <path class="fil6" d="M10449.45 8069.31c-29.94,319.13 -52.3,1294.62 -123.75,1499.59l-113.89 -1494.82c-225.15,-159.27 -605.6,-158.37 -798.72,10.58 -342.76,299.87 -523.31,1850.98 918.62,1855.51 1738.18,5.45 1321.24,-2594.35 117.74,-1870.86z"/>
   <path class="fil4" d="M10152.39 3065.33l-191.2 -7.28c-54.15,105.6 27.15,362.84 28.79,656.16 1.29,228.79 -39.71,519.92 -27.71,709.32l758.83 -5.46c-13.91,-237.34 -30.06,-460.03 -28.8,-703.31 1.37,-267.06 57.39,-464.71 65.41,-671.81l-605.32 22.38z"/>
   <path class="fil5" d="M8387.15 4456.37c-592.56,276.23 -172.92,1073.88 367.08,845.58 538.37,-227.61 200.83,-1110.3 -367.08,-845.58z"/>
   <path class="fil5" d="M11968.69 4437.08c-540.79,157.89 -361.25,1061.95 267.6,879.76 545.64,-158.09 334.82,-1055.64 -267.6,-879.76z"/>
   <ellipse class="fil7" cx="8639.84" cy="4747.06" rx="160.88" ry="172.91"/>
   <ellipse class="fil7" cx="11949.29" cy="4756.61" rx="160.88" ry="172.91"/>
  </g>
 </g>
</svg>
