<?xml version="1.0" encoding="UTF-8"?>
<!DOCTYPE svg PUBLIC "-//W3C//DTD SVG 1.1//EN" "http://www.w3.org/Graphics/SVG/1.1/DTD/svg11.dtd">
<!-- Creator: CorelDRAW 2020 (64 Bit) -->
<svg xmlns="http://www.w3.org/2000/svg" xml:space="preserve" width="210mm" height="297mm" version="1.1" style="shape-rendering:geometricPrecision; text-rendering:geometricPrecision; image-rendering:optimizeQuality; fill-rule:evenodd; clip-rule:evenodd"
viewBox="0 0 21000 29700"
 xmlns:xlink="http://www.w3.org/1999/xlink"
 xmlns:xodm="http://www.corel.com/coreldraw/odm/2003">
 <defs>
  <style type="text/css">
   <![CDATA[
    .fil5 {fill:#FEFEFE}
    .fil3 {fill:#030303}
    .fil8 {fill:#130C0B}
    .fil6 {fill:#956A33}
    .fil12 {fill:#966A32}
    .fil13 {fill:#E4B47C}
    .fil11 {fill:#F58D85}
    .fil4 {fill:#F88B8E}
    .fil9 {fill:#F8B05E}
    .fil1 {fill:#FAAF5E}
    .fil10 {fill:#FAD994}
    .fil14 {fill:#FDFDFD}
    .fil7 {fill:#FEFEFE}
    .fil0 {fill:#FFFEFE}
    .fil2 {fill:white}
   ]]>
  </style>
 </defs>
 <g id="Camada_x0020_1">
  <metadata id="CorelCorpID_0Corel-Layer"/>
  <polygon class="fil0" points="23616.15,8487.19 30830.47,8487.19 30830.47,4816.17 23616.15,4816.17 "/>
  <g id="_1964250996192">
   <path class="fil1" d="M-25027.52 7274.75c71.41,-168.82 332.07,-385.12 497.77,-627.47 482.24,-705.26 60.83,-1057.54 563.89,-1754.62 125.38,-173.73 79.85,-1213.22 630.09,-736.48l160.56 187.85c3.44,5.28 7.61,12.25 11.07,17.33 101.16,148.64 343.35,67.94 665.67,225.93 580.58,284.58 245.8,665.18 841.48,832.72 115.15,32.38 238.18,34.96 285.08,117.76 129.37,228.43 -137.38,244.43 -138.09,244.61 1.86,20.89 186.38,327.27 -277.5,584.27 -237.11,131.36 -601.52,100.8 -730.74,251.5 -96.05,364.53 175.99,753.79 333.79,961.39 285.29,11.65 565.05,-57.45 787.33,-174.18 105.49,-55.41 215.31,-137.43 293.04,-193.42 104.11,-74.98 165.9,-168.5 229.89,-256.62 310.57,-427.72 407.49,-946.27 196.41,-1517.61 -79.34,-214.78 -267.86,-479.12 -384.08,-587.91 -163.94,-153.47 -378.59,-292.03 -528.67,-442.57 -449.73,-451.12 -695.11,-1187.31 -1831.34,-1021.77 -716.28,104.35 -885.5,715.66 -1598.56,1316.62 -310.63,261.78 -648.31,652.3 -666.1,1269.4 -13.69,474.47 142.35,757.47 376.96,1071.45l176.46 174.16c68.51,45.72 18.75,25.97 105.59,57.66z"/>
   <path class="fil1" d="M-34445.87 3767.2c-41.63,890.86 -9.87,2342.95 -9.54,3282.34l13.88 271.28c127.2,34.36 582.35,36.05 700.74,-3.83l17.72 -1189.7c588.45,5.19 1142.96,56.83 1583.98,-284.24 527.15,-407.68 549.85,-1482.11 -98.5,-1883.25 -453.82,-280.77 -1611.31,-198.96 -2208.28,-192.6z"/>
   <path class="fil1" d="M-19566.87 5674.52c-113.5,204.1 172.48,1216.02 1486.07,1179.97 1396.96,-38.36 1757.22,-1668.31 525.1,-2084.23 -310.95,-104.97 -779.44,-184.78 -1039.54,-336.26 -379.05,-220.74 -175.36,-654.06 225.55,-718.18 205.42,-32.85 419.71,-1.1 553.69,102.95 124.34,96.53 158.38,162.77 202.99,305.54 56.23,179.9 29.22,126.43 680.78,140.43 137.97,-1289.31 -2014.9,-1550.08 -2496.98,-500.88 -159.38,346.88 -104.23,792.62 196.81,1092.23 398.49,396.58 1121.48,378.18 1522.67,636.51 143.49,92.42 249.96,318.57 121.86,514.28 -187.58,286.55 -719.87,326.31 -1049.09,140.46 -242.57,-136.94 -213.62,-366.02 -279.74,-446.51 -55.39,-67.43 -533.91,-63.37 -650.17,-26.31z"/>
   <path class="fil1" d="M-29194.4 6914.73c-28.1,-60.96 -293.23,-370.18 -411.32,-341.55 -72.4,43.8 -64.69,69.01 -136.6,125.13 -308.92,241.09 -725.4,259.16 -1000.84,-51.03 -101.51,-114.3 -130.79,-243.05 -167.84,-412.49 306.1,-0.2 1676.9,31.88 1843.5,-22.82 75.17,-339.92 -30.43,-772.06 -192.18,-1018.71 -534.98,-815.84 -1945.53,-698.92 -2274.88,336.35 -355,1115.89 435.81,2072.14 1569.48,1863.85 331.92,-60.97 655.76,-261.78 770.68,-478.73z"/>
   <path class="fil1" d="M-28461.24 4299.51l-1.82 402.53c-121.05,61.52 -266.82,11.91 -389.47,28.73 -156,21.39 -111.68,140.76 -111.51,296.68 0.43,297.91 -70.48,282.34 382.21,282.56 167.92,0.09 120.18,33.39 120.2,364.51 0.01,840.51 -154.72,1736.24 930.74,1714.83 536.89,-10.58 437.41,-43.86 442.52,-623.21 -211.28,-5.36 -462.58,77.6 -591.11,-78.6 -118.32,-143.79 -80.94,-972.81 -80.85,-1232.03 0.09,-241.22 71.68,-105.26 628.15,-161.22 36.31,-96.42 44.54,-420.76 7.98,-535.49 -78.1,-43.53 -194.14,-28.13 -296.84,-26.98 -52.29,0.59 -113.25,3.67 -163.96,3.01 -14.38,-0.19 -65.78,-1.66 -77.95,-3.79 -8.49,-1.48 -15.4,-3.07 -23.16,-5.02 -7.4,-1.86 -14.98,-5.3 -21.34,-7.37 -6.2,-2.01 -15.08,-7.37 -19.93,-9.23 -54.3,-20.89 -30.67,-259 -30.07,-329.03 0.83,-95.25 19.33,-197.74 -23.26,-283.4 -53.78,-108.16 -282.19,-65.51 -423.22,-65.59 -268.96,0 -256.96,-0.21 -257.31,268.11z"/>
   <path class="fil1" d="M-22196.58 1116.13c-1082.63,225.02 -867.01,2156.11 126.24,1951.63 412.23,-84.86 696,-550.12 685.82,-1060.11 -9.75,-488.7 -319.7,-993.84 -812.06,-891.52z"/>
   <path class="fil1" d="M-24284.28 1110.56c-972.18,226.57 -670.2,2134.22 324.41,1957.84 439.12,-77.89 673.85,-628.97 579.94,-1160.76 -75.15,-425.49 -409.52,-912.4 -904.35,-797.08z"/>
   <path class="fil1" d="M-20637.28 2515.72c-1019.12,265.86 -983.53,1942.11 -17.48,1725.42 953.22,-213.83 1029.93,-1989.53 17.48,-1725.42z"/>
   <path class="fil1" d="M-25955.97 2516.3c-562.2,178.5 -539.73,1150.72 47.39,1566.88 74.83,53.03 70.34,96.49 258.85,148.64 645.15,178.46 956.67,-545.12 683.42,-1142.7 -130.49,-285.4 -522.22,-721.24 -989.66,-572.82z"/>
   <path class="fil1" d="M-26688.71 4892.65l0.71 2438.6 680.57 -0.53c39.77,-340.12 29.9,-2063.39 11.19,-2553.74 -115.92,-48.44 -273.6,-30.39 -399.35,-32.24 -207.37,-3.03 -292.94,-53.88 -293.12,147.91z"/>
   <path class="fil0" d="M-33722.56 5516.21c558.77,-12.15 1242.57,91.86 1241.49,-569.59 -1.05,-661.22 -670.96,-592.68 -1238.73,-575.72l-2.76 1145.31z"/>
   <path class="fil0" d="M-30905.48 5774.89l1167.99 -0.89c3.76,-343.02 -222.3,-596.22 -571.73,-598.49 -380.72,-2.48 -559.13,252.64 -596.26,599.38z"/>
  </g>
  <g id="_1964250992208">
   <polygon class="fil2" points="-16942.48,108.31 -16942.48,-9860.91 -36274.71,-9860.91 -36274.71,108.31 "/>
   <path class="fil3" d="M-30736.1 -5216.16c-4.72,625.59 38.24,1459.88 208.14,2015.88 -151.33,-10.8 -846.48,-393.69 -1716.91,63.97 -655.53,344.67 -673.09,882.85 -763.43,1385.06 -400.36,-3.4 -2496.6,-47.01 -2690.4,37.67 -49.46,303.93 235.87,210.97 501.74,210.62l2219.02 0.89c84.43,464.23 237.21,946.96 777.56,843.74 190.45,-36.38 233.18,-142.39 337.72,-213.59 436.01,393.39 1022.92,231.76 1239.11,-197.23 640.95,253.83 735.78,-218.7 882.73,-430.79l1680.94 -2.79c518.26,1077.24 2176.18,932.7 2561.83,-0.04l1684.89 0.32c143.67,259.07 65.13,269.5 305.73,431.18 239.17,160.72 351.89,87.07 568.08,1.99 141.63,359.88 751.3,597.19 1169.02,256.32l79 -59.16c106.81,99.53 141.9,175.16 304.89,210.43 538.78,116.62 709.2,-316.89 789.62,-828.8 588.51,-94.87 2353.6,95.43 2744.99,-50.31l4.77 -170.97c-217.2,-102.2 -2286.67,-29.55 -2723.41,-42.28 -56.08,-689.37 -262.32,-1112.32 -724.21,-1363.88 -552.29,-300.78 -1118.99,-307.69 -1707.38,-77.84 86.61,-898.18 208.37,-744.68 195.79,-2022.64 877.65,268.42 407.43,-320.47 663.8,-1185.15 113.2,-381.78 453.4,-1160.96 313.41,-1599.21 -173.34,-542.66 -1049.4,-322.47 -1612.63,-309.87 -330.6,7.4 -666.36,-81.22 -977.13,-36.09 -336.64,48.89 -465.21,239.64 -640.51,374.82 -1292.18,-233 -376.2,-149.65 -1717.66,-152.01 -340.66,-0.6 -572.82,-43.39 -936.9,-4.53 -279.04,29.77 -543.15,128.69 -780.77,155.19 -615.16,-581.37 -680.43,-320.26 -1583,-337.45 -574.26,-10.93 -1464.75,-238.37 -1641.15,313.99 -143.43,449.17 202.64,1214.38 317.84,1617.71 258.81,906.07 -225.21,1400.63 664.87,1164.85z"/>
   <path class="fil2" d="M-28763.14 -4588.72l-319.73 336.47c-211.33,224.76 -477.58,450.12 -762.47,552 -100.37,35.89 -442.75,60.28 -487.52,119.7 -18.98,869.42 497.59,669.53 603.87,1825.57l1567 3.29c2.87,-122.11 -21.29,-230.1 -21.95,-362.84 -0.73,-147.65 26.89,-264.09 28.73,-404.18 -490.99,-446.69 -407.54,-561.32 -520.47,-927.06 -45.51,-147.36 -35.54,-65.06 -137.49,-169.87 -90.72,-93.28 -164.55,-242.19 -177.43,-421.63 109.57,180.13 167.73,351.86 379,422.19 723.48,240.84 902.9,-682.58 1735.29,-756.56l49.32 -335.79c-40.74,-25.58 -0.3,-6.12 -75.79,-39.2 -336.22,-147.37 -584.68,-260.58 -760.92,-759.57 -205.51,-581.86 351.36,-693.55 852.98,-699.01 1682.65,-18.31 760.38,1347.47 74.32,1467.49l44.54 350.19c742.35,187.75 602.15,297.28 1049.68,633.09 162.64,122.04 423.3,215.89 672.47,146.08 231.3,-64.8 289.31,-231.5 407.65,-428.69 -31.34,396.38 -267.63,456.77 -316.12,554.68 -40.72,82.21 -21.89,331.68 -235.78,639.33 -366.31,526.88 -282.54,-79.31 -283.93,1092.71l1550.51 -1.75c225.07,-1407.13 599.37,-853.11 644.37,-1793.98 -41.2,-123.79 -83.28,-75.41 -259.45,-99.3 -679.15,-92.15 -1042.12,-743.74 -1261.7,-889.41 -243.08,-161.25 -377.4,-379.84 -555.66,-595.76l-299.46 -407.96c-74.18,-125.35 -144.44,-268.1 -232.23,-369.09 -344.52,-396.4 -1440.71,-479.94 -1855.31,-58.02 -216.5,220.32 -356.88,582.2 -638.63,906.22 -67.08,77.14 -72.3,65.9 -140.49,160.82 -107.54,149.75 -158.49,187.64 -317.2,309.84z"/>
   <path class="fil1" d="M-27146.36 -6525.14c-131.7,7.39 -224.65,52.38 -332.75,87.05 -549.57,176.26 -631.49,709.72 -981.36,1231.99 -58.94,87.99 -113.16,168.22 -175.42,262.76 -59.91,90.96 -104.05,174.43 -195.4,235.61 0,271.2 -12.53,32.06 68.15,119.01 158.71,-122.2 209.66,-160.09 317.2,-309.84 68.19,-94.92 73.41,-83.68 140.49,-160.82 281.75,-324.02 422.13,-685.9 638.63,-906.22 414.6,-421.92 1510.79,-338.38 1855.31,58.02 87.79,100.99 158.05,243.74 232.23,369.09l299.46 407.96c178.26,215.92 312.58,434.51 555.66,595.76 219.58,145.67 582.55,797.26 1261.7,889.41 176.17,23.89 218.25,-24.49 259.45,99.3l78.48 -401.15c51.1,-332.53 123.51,-1125.76 56.33,-1400.48 -28.39,-116.13 -368.29,-411.46 -473,-507.01 -301.93,-275.55 -783.58,-1026.21 -945.38,-1445.37 -66.84,-173.14 -72.64,-204.36 -234.62,-272.31 -510.01,-213.98 -986.38,-351.44 -1629.72,-333.34 -8.02,207.1 -64.04,404.75 -65.41,671.81 -1.26,243.28 14.89,465.97 28.8,703.31l-758.83 5.46z"/>
   <path class="fil1" d="M-30332.86 -3580.55c44.77,-59.42 387.15,-83.81 487.52,-119.7 284.89,-101.88 551.14,-327.24 762.47,-552l319.73 -336.47c-80.68,-86.95 -68.15,152.19 -68.15,-119.01 91.35,-61.18 135.49,-144.65 195.4,-235.61 62.26,-94.54 116.48,-174.77 175.42,-262.76 349.87,-522.27 431.79,-1055.73 981.36,-1231.99 108.1,-34.67 201.05,-79.66 332.75,-87.05 -12,-189.4 29,-480.53 27.71,-709.32 -1.64,-293.32 -82.94,-550.56 -28.79,-656.16l191.2 7.28c-368.21,-136.06 -1374.11,101.49 -1707.86,244.73 -579.91,248.89 -218.46,254.44 -848.74,1170.57 -139.57,202.87 -269.43,376.91 -431.23,547.16 -57.09,60.06 -495.83,485.9 -505.19,503.03 -116.74,213.89 -22.29,1665.86 116.4,1837.3z"/>
   <path class="fil2" d="M-22810.89 -1494.35c150.26,229.42 -30.87,483.24 457.57,579.28 531.82,104.56 429.14,-229.49 566.66,-448.82 367.99,-59.41 140.9,612.38 657.38,453.08 327.39,-100.99 719.52,-1827.83 -723.66,-2153.24 -1485.95,-335.05 -1930.46,1148.23 -1666.18,1631.56 56.84,103.97 202.83,245.11 362.8,182.49 194.38,-76.1 63.31,-287.41 345.43,-244.35z"/>
   <path class="fil2" d="M-31933.6 -1370.4l148.32 -7.74c133.58,197.77 21.91,551.99 552.51,468.32 501.17,-79.03 307.88,-386.1 478.5,-570 201.43,-96.64 162.39,113.63 307.65,209.53 283.56,187.22 667.45,-319.89 346.44,-1058.35 -533.73,-1227.8 -2528.4,-976.76 -2638.05,415.15 -21.82,276.88 50.47,784.26 202.37,944.76 105.71,111.69 329.64,86.39 421.94,-16.56 94.92,-105.9 107.01,-270.1 180.32,-385.11z"/>
   <path class="fil1" d="M-22487.49 -5386.23c36.14,-511.97 -36.49,-634.95 123.17,-1140.03 105.14,-332.62 229.8,-612.79 290.86,-990.98 97.36,-603 -110.39,-621.76 -662.33,-592.65 -433.13,22.84 -786.11,76.22 -1229.66,15.49 -665.58,-91.13 -463.41,259.39 -314.18,654.02 256.67,678.77 1177.67,1954.27 1792.14,2054.15z"/>
   <path class="fil1" d="M-31054.85 -5387.33c693.28,-102.67 2051.62,-2019.26 1912.61,-2651.7 -227.56,-139.39 -654.39,2.86 -1306.71,-44.22 -1050.35,-75.82 -1331.82,-146.89 -769.72,1453.61 260.41,741.5 105.52,840.59 163.82,1242.31z"/>
   <path class="fil4" d="M-26659.18 -2879.36c-29.94,319.13 -52.3,1294.62 -123.75,1499.59l-113.89 -1494.82c-225.15,-159.27 -605.6,-158.37 -798.72,10.58 -342.76,299.87 -523.31,1850.98 918.62,1855.51 1738.18,5.45 1321.24,-2594.35 117.74,-1870.86z"/>
   <path class="fil2" d="M-26956.24 -7883.34l-191.2 -7.28c-54.15,105.6 27.15,362.84 28.79,656.16 1.29,228.79 -39.71,519.92 -27.71,709.32l758.83 -5.46c-13.91,-237.34 -30.06,-460.03 -28.8,-703.31 1.37,-267.06 57.39,-464.71 65.41,-671.81l-605.32 22.38z"/>
   <path class="fil3" d="M-28721.48 -6492.3c-592.56,276.23 -172.92,1073.88 367.08,845.58 538.37,-227.61 200.83,-1110.3 -367.08,-845.58z"/>
   <path class="fil3" d="M-25139.94 -6511.59c-540.79,157.89 -361.25,1061.95 267.6,879.76 545.64,-158.09 334.82,-1055.64 -267.6,-879.76z"/>
   <ellipse class="fil5" cx="-28468.79" cy="-6201.61" rx="160.88" ry="172.91"/>
   <ellipse class="fil5" cx="-25159.34" cy="-6192.06" rx="160.88" ry="172.91"/>
  </g>
  <g id="_1964250982848">
   <path class="fil6" d="M-23380.84 19333.98l136.21 -48.03c16.46,-16.51 68.7,-31.2 124.24,-83.44 135.52,-127.42 125.09,-181.04 365.77,-266.11 117.34,-41.48 208.91,-63.14 315.55,-45.84 27.14,4.41 35.31,9.27 65.84,12.99 132.66,16.17 206.03,-5.72 222.23,-3.25l97.33 -34.32c23.11,-18.65 152.85,-53.2 216.67,-171 151.47,-279.59 -185.44,-499.1 -371.6,-642.03l-257.61 -182.74c-18.58,-12.62 -33.44,-22.84 -54.95,-35.99l-217.4 -123.61c-113.72,-58.8 -281.37,-55.14 -415.89,-9.93 -327.49,110.06 -401.84,301.92 -493.61,597.56 -55.23,177.9 -82.22,320.13 -124.69,497.89 -16.65,69.72 -36.32,192.32 -26.73,267.1 13.77,107.38 80.03,201.41 150.73,240.2 117.29,64.33 193.09,30.63 258.85,30.1l9.06 0.45z"/>
   <path class="fil6" d="M-23255.88 16080.17l-82.63 29.14 -17.73 16.44c-313.97,227.75 -153.56,857.25 127.58,1088.25 409.14,336.16 718.67,-111.59 545.37,-628.07 -51.06,-152.19 -127.95,-274.77 -227.27,-369.56 -87.83,-83.82 -194.26,-143.35 -317.48,-135.27l-27.84 -0.93z"/>
   <path class="fil6" d="M-24167.56 16401.66l-79.48 28.02c-11.17,14.21 -22.38,17.83 -39.55,31.49 -197.73,157.37 -169.13,504.2 -89.16,721.57 87.27,237.21 338.91,543.98 598.4,452.84 328.39,-115.36 301.72,-761.7 -44.07,-1099.93 -67.18,-65.71 -152.9,-114.26 -244.11,-131.2 -31.49,-5.85 -72.64,3.44 -102.03,-2.79z"/>
   <path class="fil6" d="M-22309.87 16753.87c-192.01,89.63 -264.3,360.7 -261.62,558.71 1.55,114.3 36.49,268.21 113.77,358.57 70.06,81.93 173.6,139.53 304.1,76 274.41,-133.6 341.74,-687.37 143.82,-917.94 -70.59,-82.23 -169.19,-136.43 -300.07,-75.34z"/>
   <path class="fil6" d="M-24621.97 17569.38c-223.81,119.39 -108.38,452.89 46.68,620.84 81.5,88.28 163.01,149.91 250.55,189.36 248.83,112.14 490.76,15.2 448.84,-270.34 -29.51,-201.1 -182.45,-384.01 -348.45,-486.16 -97.44,-59.96 -269.08,-122.26 -397.62,-53.7z"/>
   <path class="fil7" d="M-23244.63 19285.95l1093.63 -385.65c-16.2,-2.47 -89.57,19.42 -222.23,3.25 -30.53,-3.72 -38.7,-8.58 -65.84,-12.99 -106.64,-17.3 -198.21,4.36 -315.55,45.84 -240.68,85.07 -230.25,138.69 -365.77,266.11 -55.54,52.24 -107.78,66.93 -124.24,83.44z"/>
   <path class="fil6" d="M-28543.83 19282.24l136.21 -48.03c16.47,-16.51 68.7,-31.2 124.25,-83.44 135.51,-127.42 125.08,-181.04 365.76,-266.11 117.34,-41.48 208.91,-63.14 315.55,-45.84 27.15,4.41 35.32,9.27 65.84,12.99 132.66,16.17 206.03,-5.72 222.23,-3.25l97.34 -34.32c23.11,-18.65 152.84,-53.2 216.67,-171 151.47,-279.59 -185.44,-499.1 -371.6,-642.03l-257.62 -182.74c-18.57,-12.62 -33.44,-22.84 -54.95,-35.99l-217.39 -123.61c-113.73,-58.8 -281.38,-55.14 -415.89,-9.93 -327.5,110.06 -401.84,301.92 -493.62,597.56 -55.22,177.9 -82.21,320.13 -124.68,497.89 -16.66,69.72 -36.32,192.32 -26.73,267.1 13.77,107.38 80.02,201.41 150.72,240.2 117.29,64.33 193.1,30.63 258.85,30.1l9.06 0.45z"/>
   <path class="fil6" d="M-28418.86 16028.43l-82.64 29.14 -17.72 16.43c-313.97,227.76 -153.57,857.26 127.58,1088.26 409.14,336.16 718.66,-111.59 545.36,-628.07 -51.06,-152.19 -127.95,-274.77 -227.27,-369.56 -87.83,-83.82 -194.26,-143.35 -317.47,-135.27l-27.84 -0.93z"/>
   <path class="fil6" d="M-29330.55 16349.92l-79.48 28.02c-11.17,14.21 -22.38,17.83 -39.55,31.49 -197.73,157.37 -169.13,504.2 -89.16,721.57 87.27,237.21 338.92,543.98 598.4,452.83 328.4,-115.35 301.72,-761.69 -44.06,-1099.92 -67.19,-65.71 -152.9,-114.26 -244.12,-131.2 -31.49,-5.85 -72.63,3.44 -102.03,-2.79z"/>
   <path class="fil6" d="M-27472.86 16702.13c-192,89.63 -264.3,360.7 -261.61,558.71 1.55,114.3 36.48,268.2 113.76,358.57 70.07,81.93 173.6,139.53 304.1,76 274.41,-133.6 341.74,-687.37 143.82,-917.94 -70.59,-82.23 -169.18,-136.44 -300.07,-75.34z"/>
   <path class="fil6" d="M-29784.95 17517.64c-223.82,119.39 -108.38,452.89 46.67,620.84 81.5,88.28 163.01,149.91 250.55,189.36 248.83,112.14 490.76,15.2 448.85,-270.35 -29.52,-201.09 -182.45,-384 -348.46,-486.15 -97.43,-59.96 -269.08,-122.26 -397.61,-53.7z"/>
   <path class="fil7" d="M-28407.62 19234.21l1093.63 -385.65c-16.2,-2.47 -89.57,19.42 -222.23,3.25 -30.52,-3.72 -38.69,-8.58 -65.84,-12.99 -106.64,-17.3 -198.21,4.36 -315.55,45.84 -240.68,85.07 -230.25,138.69 -365.76,266.11 -55.55,52.24 -107.78,66.93 -124.25,83.44z"/>
   <g>
    <path class="fil6" d="M-26162.47 14683.91l136.21 -48.04c16.47,-16.51 68.7,-31.2 124.25,-83.43 135.51,-127.42 125.08,-181.04 365.76,-266.12 117.34,-41.48 208.91,-63.14 315.55,-45.83 27.15,4.4 35.32,9.27 65.84,12.99 132.66,16.17 206.03,-5.72 222.23,-3.25l97.34 -34.32c23.11,-18.66 152.84,-53.2 216.67,-171.01 151.47,-279.59 -185.44,-499.09 -371.6,-642.02l-257.62 -182.75c-18.57,-12.61 -33.44,-22.83 -54.95,-35.99l-217.39 -123.61c-113.73,-58.79 -281.38,-55.13 -415.89,-9.92 -327.5,110.05 -401.84,301.92 -493.62,597.56 -55.22,177.9 -82.21,320.13 -124.68,497.89 -16.66,69.71 -36.32,192.32 -26.73,267.1 13.77,107.37 80.02,201.41 150.73,240.19 117.28,64.34 193.09,30.64 258.84,30.1l9.06 0.46z"/>
    <path class="fil6" d="M-26037.5 11430.1l-82.64 29.13 -17.72 16.44c-313.97,227.76 -153.57,857.25 127.58,1088.26 409.14,336.16 718.66,-111.59 545.36,-628.08 -51.06,-152.18 -127.95,-274.77 -227.27,-369.55 -87.83,-83.82 -194.26,-143.35 -317.47,-135.27l-27.84 -0.93z"/>
    <path class="fil6" d="M-26949.19 11751.58l-79.48 28.03c-11.17,14.21 -22.38,17.82 -39.55,31.49 -197.73,157.37 -169.13,504.2 -89.16,721.56 87.27,237.22 338.92,543.99 598.4,452.84 328.4,-115.35 301.72,-761.69 -44.06,-1099.92 -67.19,-65.72 -152.9,-114.26 -244.12,-131.21 -31.49,-5.85 -72.63,3.45 -102.03,-2.79z"/>
    <path class="fil6" d="M-25091.5 12103.8c-192,89.63 -264.29,360.7 -261.61,558.71 1.55,114.3 36.48,268.2 113.76,358.57 70.07,81.92 173.6,139.53 304.1,76 274.42,-133.6 341.74,-687.37 143.82,-917.94 -70.59,-82.23 -169.18,-136.44 -300.07,-75.34z"/>
    <path class="fil6" d="M-27403.59 12919.31c-223.82,119.39 -108.38,452.88 46.67,620.84 81.5,88.27 163.01,149.91 250.55,189.36 248.84,112.13 490.76,15.2 448.85,-270.35 -29.52,-201.09 -182.45,-384.01 -348.46,-486.16 -97.43,-59.96 -269.08,-122.25 -397.61,-53.69z"/>
    <path class="fil7" d="M-26026.26 14635.87l1093.63 -385.64c-16.2,-2.47 -89.57,19.42 -222.23,3.25 -30.52,-3.72 -38.69,-8.59 -65.84,-12.99 -106.64,-17.31 -198.21,4.35 -315.55,45.83 -240.68,85.08 -230.25,138.7 -365.76,266.12 -55.55,52.23 -107.78,66.92 -124.25,83.43z"/>
   </g>
   <g>
    <path class="fil6" d="M-25821.54 24537.03l136.21 -48.04c16.47,-16.51 68.7,-31.2 124.25,-83.43 135.51,-127.42 125.08,-181.04 365.76,-266.12 117.34,-41.48 208.91,-63.14 315.55,-45.83 27.15,4.4 35.32,9.27 65.84,12.99 132.66,16.17 206.03,-5.72 222.23,-3.25l97.34 -34.32c23.11,-18.66 152.84,-53.2 216.67,-171.01 151.47,-279.59 -185.44,-499.09 -371.6,-642.02l-257.62 -182.75c-18.57,-12.61 -33.44,-22.83 -54.95,-35.99l-217.39 -123.61c-113.73,-58.79 -281.38,-55.13 -415.89,-9.92 -327.5,110.05 -401.84,301.92 -493.62,597.56 -55.22,177.9 -82.21,320.13 -124.68,497.89 -16.66,69.71 -36.32,192.32 -26.73,267.1 13.77,107.37 80.02,201.41 150.73,240.19 117.28,64.34 193.09,30.64 258.84,30.1l9.06 0.46z"/>
    <path class="fil6" d="M-25696.57 21283.22l-82.64 29.13 -17.72 16.44c-313.97,227.76 -153.57,857.25 127.58,1088.26 409.14,336.16 718.66,-111.59 545.36,-628.08 -51.06,-152.18 -127.95,-274.77 -227.27,-369.55 -87.83,-83.82 -194.26,-143.35 -317.47,-135.27l-27.84 -0.93z"/>
    <path class="fil6" d="M-26608.26 21604.7l-79.48 28.03c-11.17,14.21 -22.38,17.82 -39.55,31.49 -197.73,157.37 -169.13,504.2 -89.16,721.56 87.27,237.22 338.92,543.99 598.4,452.84 328.4,-115.35 301.72,-761.69 -44.06,-1099.92 -67.19,-65.72 -152.9,-114.26 -244.12,-131.21 -31.49,-5.85 -72.63,3.45 -102.03,-2.79z"/>
    <path class="fil6" d="M-24750.57 21956.92c-192,89.63 -264.29,360.7 -261.61,558.71 1.55,114.3 36.48,268.2 113.76,358.57 70.07,81.92 173.6,139.53 304.1,76 274.42,-133.6 341.74,-687.37 143.82,-917.94 -70.59,-82.23 -169.18,-136.44 -300.07,-75.34z"/>
    <path class="fil6" d="M-27062.66 22772.43c-223.82,119.39 -108.38,452.88 46.67,620.84 81.5,88.27 163.01,149.91 250.55,189.36 248.84,112.13 490.76,15.2 448.85,-270.35 -29.52,-201.09 -182.45,-384.01 -348.46,-486.16 -97.43,-59.96 -269.08,-122.25 -397.61,-53.69z"/>
    <path class="fil7" d="M-25685.33 24488.99l1093.63 -385.64c-16.2,-2.47 -89.57,19.42 -222.23,3.25 -30.52,-3.72 -38.69,-8.59 -65.84,-12.99 -106.64,-17.31 -198.21,4.35 -315.55,45.83 -240.68,85.08 -230.25,138.7 -365.76,266.12 -55.55,52.23 -107.78,66.92 -124.25,83.43z"/>
   </g>
  </g>
  <g id="_1964250981888">
   <path class="fil8" d="M10030.29 4114.36c-2075.08,-7.47 -2882.72,876.38 -3131.4,875.81 -276.3,-0.63 -539.59,-26.97 -823.22,-8.73 -429.75,27.63 -1003.06,124.5 -1298.21,318.38 -641.6,421.47 215.75,1887.26 462.03,2295.6 34.63,57.42 129.46,189.77 139.47,252.57 57.83,362.88 -109.8,399.57 203.52,1417.78 45.25,147.07 -12.98,174.83 -71.14,290.99 -109.68,219.08 -105.22,419.58 -163.28,655.3 -201.47,2.35 -873.55,-44.38 -998.16,40.29 -7.26,188.31 157.4,122.63 614.97,122.63 246.85,0 495.81,-3.42 742.25,-1.08 319.69,3.04 181.61,132.09 623.74,57.09 95.47,-16.2 146.73,43.03 278.15,51.22 115.61,7.19 205.6,-38.55 305.37,-33.65 576.14,28.29 227.24,-76.84 643.6,-74.59 1174.63,6.37 8019.3,32.65 8171.33,-15.75 87.34,-201.12 -154.4,-145.58 -442.91,-145.54 -215.5,0.03 -431.21,0.81 -646.69,-0.82l-192.6 -1444.13c-27.42,-377.62 20.41,-739.31 -187.73,-1034.35 -90.45,-128.22 -137,-86.75 -234.59,-189.22 -44.44,-46.67 -27.92,-43.7 -88.8,-96.69 -154.95,-134.92 -80.11,-154.92 -164.21,-468.37 -97.94,-365.08 -306.4,-824.45 -519.76,-1122.48 -126.56,-176.79 -97.41,-394.29 -125.19,-716.62 -55.14,-639.87 -221.45,-2238.55 -1042.85,-2263 -462.42,-13.77 -909.07,240.78 -1192.28,440.36 -245.67,173.12 -693.9,563.38 -861.41,797z"/>
   <path class="fil9" d="M9674.37 4269.91c-5.4,344.22 180.7,763.69 21.73,1079.05 -257.61,-27.13 -447.68,-670.05 -558.8,-910.28 -52.48,-113.48 -10.84,-81.08 -119,-82.39l-168.09 14.6c-23.24,56.8 -10.63,91.51 12.09,183.51 18.05,73.07 34.72,143.77 48.69,216.74 30.38,158.65 49.14,301.7 64.72,457.92 35.71,358.21 63.09,616.42 -109.95,897.31 -249.45,-18.98 -384.06,-387.15 -486.79,-638.58 -90.02,-220.33 -230.3,-634.09 -274.48,-875.97l-58.7 11.15 -185.73 68.09c70.77,240.32 261.73,860.84 42.48,1063.81 -184.02,15.18 -262.89,-149.61 -344,-317.59 -50.13,-103.82 -165.04,-387.6 -175.39,-490.16 -126.88,17.51 -180.39,93.44 -286.96,157.59 -126.1,75.92 -219.91,32.02 -383.56,24.83 -527.52,-23.16 -1157.17,13.43 -1642.58,199.81 -267.83,102.85 -384.02,209.11 -366.59,556.88 21.71,433.26 324.47,1021.83 503.44,1344.78l261.53 427.58c79.35,103.81 67.11,24.44 70.21,183.13 6.34,324.88 -12.92,546.7 48.14,860.74 -1.65,-138.55 -12.28,-36.37 50.58,-75.24 121.29,138.85 528.92,177.12 756.58,175.79 519.49,-3.04 1063.01,-128.06 1402.15,-509.46 281.13,-316.17 554.81,-1683.66 1383.46,-1379.38 376.58,138.27 991.23,612 1276.07,634.47 -4.8,-4.82 -13.08,-18 -15.5,-13.25 -0.02,0.03 -218.21,-164.1 -292.07,-349.66 -230.72,-579.64 330.31,-1141 896.63,-924.35 733.14,280.47 579.62,1464.71 -422.52,1345.65 211.09,233.95 1120.53,235.18 1582.71,93.42 89.3,-27.39 135.43,-76.88 162.27,-70.34 102.39,-59.79 138.41,-97.55 277.35,-153.33 97.75,-39.24 61.29,-21.85 129.33,-80.27 68.37,-58.7 76.08,-54.03 136.99,-100.66 -59.47,-54.14 19.16,-55.83 120.57,-170.79 44.79,-50.78 109.04,-147.5 146.57,-198.97 45.26,-62.07 87.96,-143.85 127.94,-214.59 133.33,-235.94 22.12,-168.38 122.94,-207.33 -96.14,-291.82 -267.16,-447.05 -383.93,-677.7 -64.15,-126.71 -85.23,-2012.24 -581.81,-2597.45 -528.02,-622.27 -1650.77,308.95 -2061.2,710.32 -95.77,93.65 -158.44,172.14 -260.14,268.68 -91.85,87.19 -289.77,62.45 -467.38,61.89z"/>
   <path class="fil10" d="M5586.78 8702.46l134.49 525.78c184.71,-64 233.43,-182.04 623.26,-218.12 464.63,-43.01 907.35,88.67 1136.74,499.24 159.74,285.89 115.44,409.8 43.31,701.61l4681.14 1.35c50.59,-577.07 75.67,-802.92 -14.59,-1390.48 -130.86,-851.99 44.11,-729.25 102.18,-900.74 21,-62.01 61.25,-240.24 73.83,-290.99 -26.84,-6.54 -72.97,42.95 -162.27,70.34 -462.18,141.76 -1371.62,140.53 -1582.71,-93.42l-166.54 -58.39c-284.84,-22.47 -899.49,-496.2 -1276.07,-634.47 -828.65,-304.28 -1102.33,1063.21 -1383.46,1379.38 -339.14,381.4 -882.66,506.42 -1402.15,509.46 -227.66,1.33 -635.29,-36.94 -756.58,-175.79 -62.86,38.87 -52.23,-63.31 -50.58,75.24z"/>
   <path class="fil9" d="M12382.71 10210.98l2067.01 2.12c48.58,-244.56 -171.09,-1241.8 -178.83,-1787.81 -9.65,-681.96 -190.41,-567.09 -403.16,-803.68 -241.65,-268.7 -283.88,-59.44 -537.79,-176.38 -127.06,-58.53 -262,-49.15 -367.25,7.37 -148.67,79.83 -114.11,107.1 -308.6,193.51 -182.62,81.14 -154.14,93.31 -203.73,299.84 -46.09,191.94 -138.8,145.72 -147.58,372.77 -14.08,363.89 137.34,719.77 110.94,1430.82 -5.68,152.99 -55.28,319.83 -31.01,461.44z"/>
   <path class="fil8" d="M7114.84 6965.43c-863.36,270.58 -470.17,1631.19 441.9,1328.12 312.55,-103.85 563.67,-439.32 448.83,-867.58 -87.96,-328.08 -460.73,-595.31 -890.73,-460.54z"/>
   <path class="fil8" d="M10455.62 7548.64l166.54 58.39c1002.14,119.06 1155.66,-1065.18 422.52,-1345.65 -566.32,-216.65 -1127.35,344.71 -896.63,924.35 73.86,185.56 292.05,349.69 292.07,349.66 2.42,-4.75 10.7,8.43 15.5,13.25z"/>
   <path class="fil9" d="M6886.94 10143.36c-43.18,-182.57 52.94,-478.78 277.89,-206.15l-53.85 304.62c146.27,-19.99 69.13,-5.58 132.02,-68.79 26.24,-26.37 68.09,-51.2 91.62,-90.87 56.91,-95.98 32.66,-227.93 59.17,-338.73 16.48,-526.13 -1220.26,-911.36 -1682.54,-227.62 -109.5,161.95 -196.76,460.13 -191.78,702.39l207.93 3.17c-10.76,-85.25 -40.7,-123.68 -22.71,-201.73 16.76,-72.63 -8.95,-16.34 29.46,-62.05 187.11,-78.13 35.91,325.49 369.6,355.96 326.19,29.79 238.12,-265.36 285.4,-484.12 228.66,-7.73 153.05,252.47 92.87,466.66 185.23,69.27 398.65,34.83 404.92,-152.74z"/>
   <path class="fil11" d="M10731.8 4218.24c65.08,81.79 88.66,73.23 223.27,100.16 260.85,52.17 857.86,340.17 1088.89,496.29 73.25,49.49 123.44,81.44 195,122.17 162.14,92.28 100.7,98.65 204.22,115.8 23.47,-364.2 -54.77,-714.2 -155.59,-1036.05 -97.52,-311.27 -159.81,-720.67 -681.44,-437.48 -171.19,92.94 -427.12,192.27 -629.37,378.48 -54.49,50.17 -63.93,61.03 -129.52,108.82 -67.62,49.29 -101.58,51.99 -115.46,151.81z"/>
   <path class="fil12" d="M8045.79 4622.97l58.7 -11.15c44.18,241.88 184.46,655.64 274.48,875.97 102.73,251.43 237.34,619.6 486.79,638.58 173.04,-280.89 145.66,-539.1 109.95,-897.31 -15.58,-156.22 -34.34,-299.27 -64.72,-457.92 -13.97,-72.97 -30.64,-143.67 -48.69,-216.74 -22.72,-92 -35.33,-126.71 -12.09,-183.51 -178.26,50.4 -700.82,150.75 -804.42,252.08z"/>
   <path class="fil11" d="M5150.26 5723.7c-36.29,416.54 155.41,723.25 357.58,1048.86 34.5,55.57 37.92,79.74 118.67,94.61 77.32,-113.56 103.49,-271.09 221.64,-441.97 114.69,-165.88 300.77,-523.64 485.16,-706.29 81.16,-80.39 89.56,-41.88 83.68,-201.49 -249.11,-11.71 -638.77,-10.19 -854.6,38.15 -321.06,71.92 -176.28,90.83 -412.13,168.13z"/>
   <path class="fil8" d="M8914.82 8302.47c-130.89,43.99 -164.49,-58.2 -239.38,26.83 -60.02,87.89 8.04,80.08 71.09,151.92 55.85,63.63 66.75,111.07 125.38,166.58 226.63,214.52 655.31,77.19 783.92,-242.51 48.02,-119.37 15.97,-122.17 93.83,-196.38 55.35,-52.75 147.29,-81.21 77.38,-171.26 -99.37,-108.47 -152.93,108.17 -367.49,149.85 -229.57,44.58 -316.09,-48.49 -340.41,-237.64 57.85,-62.06 311.4,-244.97 172.11,-409.16 -95.8,-112.92 -428.23,-27.04 -548.69,32.58 -187.43,92.75 -118.92,290.38 46.49,364.19 138.36,61.75 165.8,-12.82 205.85,138.32 26.99,101.84 4.67,160.58 -80.08,226.68z"/>
   <path class="fil11" d="M13243.31 8363.44c-193.1,61.74 -406.44,198.05 -339.19,455.07 60.54,231.31 429.2,175.09 610.04,139.49 685.05,-134.85 281.85,-771.24 -270.85,-594.56z"/>
   <path class="fil12" d="M7383.15 4947.12c10.35,102.56 125.26,386.34 175.39,490.16 81.11,167.98 159.98,332.77 344,317.59 219.25,-202.97 28.29,-823.49 -42.48,-1063.81 -154.11,44.73 -390.32,139.58 -476.91,256.06z"/>
   <path class="fil12" d="M9018.3 4356.29c108.16,1.31 66.52,-31.09 119,82.39 111.12,240.23 301.19,883.15 558.8,910.28 158.97,-315.36 -27.13,-734.83 -21.73,-1079.05 -162.77,14.38 -552.02,14.86 -656.07,86.38z"/>
   <path class="fil10" d="M12910.81 7295.85c118.21,-46.15 228.82,-71.24 368.38,-39.44 63.24,14.41 115.63,44.9 160.9,54.86 86.29,19 145.8,0.63 251.5,12.69 -41.31,-227.53 -144.44,-654.25 -262.76,-819.79 -100.82,38.95 10.39,-28.61 -122.94,207.33 -39.98,70.74 -82.68,152.52 -127.94,214.59 -37.53,51.47 -101.78,148.19 -146.57,198.97 -101.41,114.96 -180.04,116.65 -120.57,170.79z"/>
   <path class="fil11" d="M13003.91 8207.33c107.66,-178.83 81.69,-431.41 -205.26,-404.61 -5.38,9.3 -29.02,43.77 -38.18,56.8 -33.12,47.07 -91.29,96.3 -26.55,209.32 74.81,130.59 159.51,153.76 269.99,138.49z"/>
   <path class="fil11" d="M13722.42 8188.05c138.19,202.47 390.06,261.78 311.26,-127.07 -31.91,-157.43 -314.88,-291.4 -311.26,127.07z"/>
   <path class="fil11" d="M8940.62 8479.17c212.66,271.68 508.24,28.12 570.46,-139.41 -209.02,13.6 -221.85,-2.41 -400.42,-51.56 -34.24,120.04 -88.23,107.55 -170.04,190.97z"/>
   <path class="fil11" d="M13324.93 8002.79c116.73,91.24 161.25,60.53 273.2,7.96 24.99,-151.05 -15.53,-242.1 -84.91,-341.23 -125.02,-20.94 -183.68,-31.45 -210.77,71.59 -21.32,81.13 -1.99,210.24 22.48,261.68z"/>
   <path class="fil11" d="M12586.92 8638.67l158.87 1.55c95.82,-155.91 46.13,-401.87 -132.63,-395.99 -222.15,7.3 -107.17,301.5 -26.24,394.44z"/>
   <path class="fil13" d="M6886.94 10143.36c35.65,-42.71 7.83,47.07 37.91,-77.85 13.49,-55.98 -0.64,-131.71 48.32,-160.98 82.73,-49.47 131.46,46.91 101.25,203.75 -15.41,80 -41.81,132.37 -65.45,209.29 191.46,-8.37 285.95,-66.7 365.27,-169.86 54.44,-70.77 79.19,-220.45 62.57,-304.58 -1.71,-8.64 -8.52,-33.74 -11.4,-41.64 -27.72,-76.12 -13.85,-30.86 -31.62,-58.05 -26.51,110.8 -2.26,242.75 -59.17,338.73 -23.53,39.67 -65.38,64.5 -91.62,90.87 -62.89,63.21 14.25,48.8 -132.02,68.79l53.85 -304.62c-224.95,-272.63 -321.07,23.58 -277.89,206.15z"/>
   <path class="fil14" d="M10794.98 6491.62c-15.44,318.42 272.04,282.86 318.26,117.79 53.61,-191.43 -148.21,-293.69 -318.26,-117.79z"/>
   <path class="fil14" d="M7409.16 7138.02c-225.63,162.86 18.98,368.27 165.2,273.54 179.19,-116.11 22.94,-409.34 -165.2,-273.54z"/>
  </g>
 </g>
</svg>
